# xmcd
#
# Track frame offsets: 
#        150
#        19731
#        41387
#        64906
#        91460
#        110878
#        125354
#
# Disc length: 1900 seconds
#
# Revision: 0
# Processed by: cddbd v1.5.1PL2 Copyright (c) Steve Scherf et al.
# Submitted via: ExactAudioCopy v0.95b3
#
DISCID=5b076a07
DTITLE=back door slam - early demo
DYEAR=2005
DGENRE=Blues
TTITLE0=soldiers son
TTITLE1=sunset
TTITLE2=ask me no questions
TTITLE3=bad mistake
TTITLE4=gone for good
TTITLE5=over my head
TTITLE6=too much to ask
EXTD=
EXTT0=
EXTT1=
EXTT2=
EXTT3=
EXTT4=
EXTT5=
EXTT6=
PLAYORDER=
